<svg xmlns="http://www.w3.org/2000/svg" xmlns:xlink="http://www.w3.org/1999/xlink" width="500" zoomAndPan="magnify" viewBox="0 0 375 374.999991" height="500" preserveAspectRatio="xMidYMid meet" version="1.2"><defs><clipPath id="d15aa38fa0"><path d="M 187 187 L 215 187 L 215 219.410156 L 187 219.410156 Z M 187 187 "/></clipPath><clipPath id="0b0e25e466"><path d="M 214 172 L 242.253906 172 L 242.253906 204 L 214 204 Z M 214 172 "/></clipPath><clipPath id="a40a1708b5"><path d="M 160 187 L 188 187 L 188 219.410156 L 160 219.410156 Z M 160 187 "/></clipPath><clipPath id="f25a8da67e"><path d="M 132.753906 172 L 161 172 L 161 204 L 132.753906 204 Z M 132.753906 172 "/></clipPath><clipPath id="04b1cae2bc"><path d="M 132.753906 140 L 161 140 L 161 173 L 132.753906 173 Z M 132.753906 140 "/></clipPath><clipPath id="af43d5139b"><path d="M 132.753906 156 L 161 156 L 161 188 L 132.753906 188 Z M 132.753906 156 "/></clipPath><clipPath id="e12aa4ebf8"><path d="M 132.753906 124 L 161 124 L 161 157 L 132.753906 157 Z M 132.753906 124 "/></clipPath><clipPath id="337d6a9bf6"><path d="M 132.753906 109 L 161 109 L 161 141 L 132.753906 141 Z M 132.753906 109 "/></clipPath><clipPath id="e00d8eb606"><path d="M 219 68.660156 L 240 68.660156 L 240 91 L 219 91 Z M 219 68.660156 "/></clipPath></defs><g id="12cb63e75d"><rect x="0" width="375" y="0" height="374.999991" style="fill:#ffffff;fill-opacity:1;stroke:none;"/><rect x="0" width="375" y="0" height="374.999991" style="fill:#efefef;fill-opacity:1;stroke:none;"/><g clip-rule="nonzero" clip-path="url(#d15aa38fa0)"><path style=" stroke:none;fill-rule:evenodd;fill:#cd1e57;fill-opacity:1;" d="M 214.824219 203.636719 L 201.164062 211.519531 L 187.503906 219.40625 L 187.503906 187.863281 L 201.164062 195.746094 Z M 214.824219 203.636719 "/></g><path style=" stroke:none;fill-rule:evenodd;fill:#bd2329;fill-opacity:1;" d="M 187.503906 187.863281 L 214.824219 172.089844 L 214.824219 203.636719 L 201.164062 195.746094 Z M 187.503906 187.863281 "/><g clip-rule="nonzero" clip-path="url(#0b0e25e466)"><path style=" stroke:none;fill-rule:evenodd;fill:#e6422e;fill-opacity:1;" d="M 242.144531 187.863281 L 228.488281 195.746094 L 214.824219 203.636719 L 214.824219 172.089844 L 228.488281 179.976562 Z M 242.144531 187.863281 "/></g><g clip-rule="nonzero" clip-path="url(#a40a1708b5)"><path style=" stroke:none;fill-rule:evenodd;fill:#dc1e7a;fill-opacity:1;" d="M 160.183594 203.636719 L 173.84375 211.519531 L 187.503906 219.40625 L 187.503906 187.863281 L 173.84375 195.746094 Z M 160.183594 203.636719 "/></g><path style=" stroke:none;fill-rule:evenodd;fill:#8e2680;fill-opacity:1;" d="M 187.503906 187.863281 L 173.84375 195.746094 L 160.183594 203.636719 L 160.183594 172.089844 Z M 187.503906 187.863281 "/><g clip-rule="nonzero" clip-path="url(#f25a8da67e)"><path style=" stroke:none;fill-rule:evenodd;fill:#652a7d;fill-opacity:1;" d="M 132.863281 187.863281 L 160.183594 172.089844 L 160.183594 203.636719 L 146.523438 195.746094 Z M 132.863281 187.863281 "/></g><g clip-rule="nonzero" clip-path="url(#04b1cae2bc)"><path style=" stroke:none;fill-rule:evenodd;fill:#27397d;fill-opacity:1;" d="M 132.863281 156.316406 L 160.183594 172.089844 L 160.183594 140.546875 L 146.523438 148.433594 Z M 132.863281 156.316406 "/></g><g clip-rule="nonzero" clip-path="url(#af43d5139b)"><path style=" stroke:none;fill-rule:evenodd;fill:#232358;fill-opacity:1;" d="M 160.183594 172.089844 L 132.863281 187.863281 L 132.863281 156.316406 Z M 160.183594 172.089844 "/></g><g clip-rule="nonzero" clip-path="url(#e12aa4ebf8)"><path style=" stroke:none;fill-rule:evenodd;fill:#347cba;fill-opacity:1;" d="M 160.183594 140.546875 L 146.523438 148.433594 L 132.863281 156.316406 L 132.863281 124.773438 Z M 160.183594 140.546875 "/></g><g clip-rule="nonzero" clip-path="url(#337d6a9bf6)"><path style=" stroke:none;fill-rule:evenodd;fill:#1ba1a3;fill-opacity:1;" d="M 132.863281 124.773438 L 160.183594 140.546875 L 160.183594 109 L 146.523438 116.890625 Z M 132.863281 124.773438 "/></g><path style=" stroke:none;fill-rule:evenodd;fill:#036635;fill-opacity:1;" d="M 187.503906 124.773438 L 160.183594 140.546875 L 160.183594 109 L 173.84375 116.890625 Z M 187.503906 124.773438 "/><path style=" stroke:none;fill-rule:evenodd;fill:#8cc540;fill-opacity:1;" d="M 187.503906 124.773438 L 214.824219 140.546875 L 214.824219 109 L 201.164062 116.890625 Z M 187.503906 124.773438 "/><path style=" stroke:none;fill-rule:evenodd;fill:#138f46;fill-opacity:1;" d="M 150.492188 93.5625 L 177.8125 77.789062 L 177.8125 109.335938 L 164.152344 101.445312 Z M 150.492188 93.5625 "/><path style=" stroke:none;fill-rule:evenodd;fill:#dddc20;fill-opacity:1;" d="M 188.054688 92.804688 L 197.953125 87.09375 L 207.847656 81.378906 L 207.847656 104.234375 L 197.953125 98.519531 Z M 188.054688 92.804688 "/><path style=" stroke:none;fill-rule:evenodd;fill:#fccc0f;fill-opacity:1;" d="M 241.90625 116.019531 L 235.832031 112.507812 L 229.753906 109 L 229.753906 123.03125 L 235.832031 119.523438 Z M 241.90625 116.019531 "/><g clip-rule="nonzero" clip-path="url(#e00d8eb606)"><path style=" stroke:none;fill-rule:evenodd;fill:#fcee1f;fill-opacity:1;" d="M 239.027344 79.359375 L 229.429688 74.007812 L 219.835938 68.660156 L 219.835938 90.058594 L 229.429688 84.710938 Z M 239.027344 79.359375 "/></g><g style="fill:#23242c;fill-opacity:1;"><g transform="translate(64.698533, 259.280422)"><path style="stroke:none" d="M 15.78125 0.375 C 13.113281 0.375 10.703125 -0.207031 8.546875 -1.375 C 6.398438 -2.550781 4.710938 -4.171875 3.484375 -6.234375 C 2.265625 -8.296875 1.65625 -10.625 1.65625 -13.21875 C 1.65625 -15.8125 2.269531 -18.140625 3.5 -20.203125 C 4.738281 -22.265625 6.4375 -23.878906 8.59375 -25.046875 C 10.75 -26.222656 13.160156 -26.8125 15.828125 -26.8125 C 17.992188 -26.8125 19.96875 -26.429688 21.75 -25.671875 C 23.539062 -24.921875 25.050781 -23.828125 26.28125 -22.390625 L 23.109375 -19.40625 C 21.203125 -21.476562 18.847656 -22.515625 16.046875 -22.515625 C 14.234375 -22.515625 12.609375 -22.113281 11.171875 -21.3125 C 9.742188 -20.519531 8.625 -19.421875 7.8125 -18.015625 C 7.007812 -16.609375 6.609375 -15.007812 6.609375 -13.21875 C 6.609375 -11.425781 7.007812 -9.828125 7.8125 -8.421875 C 8.625 -7.015625 9.742188 -5.910156 11.171875 -5.109375 C 12.609375 -4.316406 14.234375 -3.921875 16.046875 -3.921875 C 18.847656 -3.921875 21.203125 -4.96875 23.109375 -7.0625 L 26.28125 -4.046875 C 25.050781 -2.609375 23.535156 -1.507812 21.734375 -0.75 C 19.929688 0 17.945312 0.375 15.78125 0.375 Z M 15.78125 0.375 "/></g></g><g style="fill:#23242c;fill-opacity:1;"><g transform="translate(94.08012, 259.280422)"><path style="stroke:none" d="M 12.15625 0.265625 C 10.113281 0.265625 8.273438 -0.171875 6.640625 -1.046875 C 5.003906 -1.929688 3.726562 -3.160156 2.8125 -4.734375 C 1.894531 -6.304688 1.4375 -8.085938 1.4375 -10.078125 C 1.4375 -12.066406 1.894531 -13.84375 2.8125 -15.40625 C 3.726562 -16.96875 5.003906 -18.1875 6.640625 -19.0625 C 8.273438 -19.945312 10.113281 -20.390625 12.15625 -20.390625 C 14.21875 -20.390625 16.066406 -19.945312 17.703125 -19.0625 C 19.347656 -18.1875 20.628906 -16.96875 21.546875 -15.40625 C 22.460938 -13.84375 22.921875 -12.066406 22.921875 -10.078125 C 22.921875 -8.085938 22.460938 -6.304688 21.546875 -4.734375 C 20.628906 -3.160156 19.347656 -1.929688 17.703125 -1.046875 C 16.066406 -0.171875 14.21875 0.265625 12.15625 0.265625 Z M 12.15625 -3.78125 C 13.894531 -3.78125 15.332031 -4.359375 16.46875 -5.515625 C 17.601562 -6.671875 18.171875 -8.191406 18.171875 -10.078125 C 18.171875 -11.972656 17.601562 -13.5 16.46875 -14.65625 C 15.332031 -15.8125 13.894531 -16.390625 12.15625 -16.390625 C 10.425781 -16.390625 9 -15.8125 7.875 -14.65625 C 6.75 -13.5 6.1875 -11.972656 6.1875 -10.078125 C 6.1875 -8.191406 6.75 -6.671875 7.875 -5.515625 C 9 -4.359375 10.425781 -3.78125 12.15625 -3.78125 Z M 12.15625 -3.78125 "/></g></g><g style="fill:#23242c;fill-opacity:1;"><g transform="translate(120.364956, 259.280422)"><path style="stroke:none" d="M 22.84375 -28.015625 L 22.84375 0 L 18.3125 0 L 18.3125 -2.609375 C 17.53125 -1.648438 16.566406 -0.929688 15.421875 -0.453125 C 14.273438 0.0234375 13.007812 0.265625 11.625 0.265625 C 9.6875 0.265625 7.941406 -0.160156 6.390625 -1.015625 C 4.847656 -1.867188 3.632812 -3.082031 2.75 -4.65625 C 1.875 -6.238281 1.4375 -8.046875 1.4375 -10.078125 C 1.4375 -12.117188 1.875 -13.921875 2.75 -15.484375 C 3.632812 -17.046875 4.847656 -18.253906 6.390625 -19.109375 C 7.941406 -19.960938 9.6875 -20.390625 11.625 -20.390625 C 12.96875 -20.390625 14.191406 -20.160156 15.296875 -19.703125 C 16.398438 -19.253906 17.34375 -18.578125 18.125 -17.671875 L 18.125 -28.015625 Z M 12.203125 -3.78125 C 13.328125 -3.78125 14.34375 -4.035156 15.25 -4.546875 C 16.15625 -5.066406 16.875 -5.800781 17.40625 -6.75 C 17.9375 -7.707031 18.203125 -8.816406 18.203125 -10.078125 C 18.203125 -11.335938 17.9375 -12.445312 17.40625 -13.40625 C 16.875 -14.363281 16.15625 -15.097656 15.25 -15.609375 C 14.34375 -16.128906 13.328125 -16.390625 12.203125 -16.390625 C 11.066406 -16.390625 10.046875 -16.128906 9.140625 -15.609375 C 8.234375 -15.097656 7.515625 -14.363281 6.984375 -13.40625 C 6.453125 -12.445312 6.1875 -11.335938 6.1875 -10.078125 C 6.1875 -8.816406 6.453125 -7.707031 6.984375 -6.75 C 7.515625 -5.800781 8.234375 -5.066406 9.140625 -4.546875 C 10.046875 -4.035156 11.066406 -3.78125 12.203125 -3.78125 Z M 12.203125 -3.78125 "/></g></g><g style="fill:#23242c;fill-opacity:1;"><g transform="translate(148.235928, 259.280422)"><path style="stroke:none" d="M 22.0625 -9.96875 C 22.0625 -9.644531 22.035156 -9.179688 21.984375 -8.578125 L 6.15625 -8.578125 C 6.4375 -7.085938 7.160156 -5.90625 8.328125 -5.03125 C 9.492188 -4.164062 10.945312 -3.734375 12.6875 -3.734375 C 14.90625 -3.734375 16.734375 -4.460938 18.171875 -5.921875 L 20.703125 -3.015625 C 19.796875 -1.929688 18.648438 -1.113281 17.265625 -0.5625 C 15.878906 -0.0078125 14.316406 0.265625 12.578125 0.265625 C 10.359375 0.265625 8.40625 -0.171875 6.71875 -1.046875 C 5.03125 -1.929688 3.726562 -3.160156 2.8125 -4.734375 C 1.894531 -6.304688 1.4375 -8.085938 1.4375 -10.078125 C 1.4375 -12.046875 1.878906 -13.816406 2.765625 -15.390625 C 3.660156 -16.960938 4.898438 -18.1875 6.484375 -19.0625 C 8.078125 -19.945312 9.867188 -20.390625 11.859375 -20.390625 C 13.816406 -20.390625 15.570312 -19.953125 17.125 -19.078125 C 18.675781 -18.210938 19.882812 -16.992188 20.75 -15.421875 C 21.625 -13.847656 22.0625 -12.03125 22.0625 -9.96875 Z M 11.859375 -16.609375 C 10.347656 -16.609375 9.066406 -16.160156 8.015625 -15.265625 C 6.972656 -14.378906 6.34375 -13.191406 6.125 -11.703125 L 17.5625 -11.703125 C 17.363281 -13.160156 16.742188 -14.34375 15.703125 -15.25 C 14.671875 -16.15625 13.390625 -16.609375 11.859375 -16.609375 Z M 11.859375 -16.609375 "/></g></g><g style="fill:#23242c;fill-opacity:1;"><g transform="translate(173.652151, 259.280422)"><path style="stroke:none" d=""/></g></g><g style="fill:#23242c;fill-opacity:1;"><g transform="translate(186.001562, 259.280422)"><path style="stroke:none" d="M 27.71875 -26.4375 L 16.203125 0 L 11.375 0 L -0.1875 -26.4375 L 5.140625 -26.4375 L 13.9375 -6.046875 L 22.8125 -26.4375 Z M 27.71875 -26.4375 "/></g></g><g style="fill:#23242c;fill-opacity:1;"><g transform="translate(215.458682, 259.280422)"><path style="stroke:none" d="M 22.0625 -9.96875 C 22.0625 -9.644531 22.035156 -9.179688 21.984375 -8.578125 L 6.15625 -8.578125 C 6.4375 -7.085938 7.160156 -5.90625 8.328125 -5.03125 C 9.492188 -4.164062 10.945312 -3.734375 12.6875 -3.734375 C 14.90625 -3.734375 16.734375 -4.460938 18.171875 -5.921875 L 20.703125 -3.015625 C 19.796875 -1.929688 18.648438 -1.113281 17.265625 -0.5625 C 15.878906 -0.0078125 14.316406 0.265625 12.578125 0.265625 C 10.359375 0.265625 8.40625 -0.171875 6.71875 -1.046875 C 5.03125 -1.929688 3.726562 -3.160156 2.8125 -4.734375 C 1.894531 -6.304688 1.4375 -8.085938 1.4375 -10.078125 C 1.4375 -12.046875 1.878906 -13.816406 2.765625 -15.390625 C 3.660156 -16.960938 4.898438 -18.1875 6.484375 -19.0625 C 8.078125 -19.945312 9.867188 -20.390625 11.859375 -20.390625 C 13.816406 -20.390625 15.570312 -19.953125 17.125 -19.078125 C 18.675781 -18.210938 19.882812 -16.992188 20.75 -15.421875 C 21.625 -13.847656 22.0625 -12.03125 22.0625 -9.96875 Z M 11.859375 -16.609375 C 10.347656 -16.609375 9.066406 -16.160156 8.015625 -15.265625 C 6.972656 -14.378906 6.34375 -13.191406 6.125 -11.703125 L 17.5625 -11.703125 C 17.363281 -13.160156 16.742188 -14.34375 15.703125 -15.25 C 14.671875 -16.15625 13.390625 -16.609375 11.859375 -16.609375 Z M 11.859375 -16.609375 "/></g></g><g style="fill:#23242c;fill-opacity:1;"><g transform="translate(240.874905, 259.280422)"><path style="stroke:none" d="M 7.59375 -17.21875 C 8.945312 -19.332031 11.335938 -20.390625 14.765625 -20.390625 L 14.765625 -15.90625 C 14.359375 -15.976562 13.992188 -16.015625 13.671875 -16.015625 C 11.835938 -16.015625 10.398438 -15.476562 9.359375 -14.40625 C 8.328125 -13.332031 7.8125 -11.789062 7.8125 -9.78125 L 7.8125 0 L 3.09375 0 L 3.09375 -20.171875 L 7.59375 -20.171875 Z M 7.59375 -17.21875 "/></g></g><g style="fill:#23242c;fill-opacity:1;"><g transform="translate(258.662531, 259.280422)"><path style="stroke:none" d="M 23.109375 -20.171875 L 23.109375 -3.0625 C 23.109375 4.039062 19.484375 7.59375 12.234375 7.59375 C 10.296875 7.59375 8.457031 7.347656 6.71875 6.859375 C 4.976562 6.367188 3.546875 5.65625 2.421875 4.71875 L 4.53125 1.171875 C 5.414062 1.898438 6.53125 2.484375 7.875 2.921875 C 9.21875 3.367188 10.582031 3.59375 11.96875 3.59375 C 14.1875 3.59375 15.8125 3.085938 16.84375 2.078125 C 17.875 1.066406 18.390625 -0.46875 18.390625 -2.53125 L 18.390625 -3.59375 C 17.585938 -2.707031 16.601562 -2.035156 15.4375 -1.578125 C 14.28125 -1.128906 13.007812 -0.90625 11.625 -0.90625 C 9.71875 -0.90625 7.988281 -1.3125 6.4375 -2.125 C 4.882812 -2.945312 3.660156 -4.097656 2.765625 -5.578125 C 1.878906 -7.066406 1.4375 -8.769531 1.4375 -10.6875 C 1.4375 -12.601562 1.878906 -14.296875 2.765625 -15.765625 C 3.660156 -17.234375 4.882812 -18.367188 6.4375 -19.171875 C 7.988281 -19.984375 9.71875 -20.390625 11.625 -20.390625 C 13.09375 -20.390625 14.421875 -20.148438 15.609375 -19.671875 C 16.804688 -19.191406 17.8125 -18.460938 18.625 -17.484375 L 18.625 -20.171875 Z M 12.34375 -4.90625 C 14.132812 -4.90625 15.601562 -5.441406 16.75 -6.515625 C 17.894531 -7.585938 18.46875 -8.976562 18.46875 -10.6875 C 18.46875 -12.375 17.894531 -13.742188 16.75 -14.796875 C 15.601562 -15.859375 14.132812 -16.390625 12.34375 -16.390625 C 10.53125 -16.390625 9.050781 -15.859375 7.90625 -14.796875 C 6.757812 -13.742188 6.1875 -12.375 6.1875 -10.6875 C 6.1875 -8.976562 6.757812 -7.585938 7.90625 -6.515625 C 9.050781 -5.441406 10.53125 -4.90625 12.34375 -4.90625 Z M 12.34375 -4.90625 "/></g></g><g style="fill:#23242c;fill-opacity:1;"><g transform="translate(286.797867, 259.280422)"><path style="stroke:none" d="M 22.0625 -9.96875 C 22.0625 -9.644531 22.035156 -9.179688 21.984375 -8.578125 L 6.15625 -8.578125 C 6.4375 -7.085938 7.160156 -5.90625 8.328125 -5.03125 C 9.492188 -4.164062 10.945312 -3.734375 12.6875 -3.734375 C 14.90625 -3.734375 16.734375 -4.460938 18.171875 -5.921875 L 20.703125 -3.015625 C 19.796875 -1.929688 18.648438 -1.113281 17.265625 -0.5625 C 15.878906 -0.0078125 14.316406 0.265625 12.578125 0.265625 C 10.359375 0.265625 8.40625 -0.171875 6.71875 -1.046875 C 5.03125 -1.929688 3.726562 -3.160156 2.8125 -4.734375 C 1.894531 -6.304688 1.4375 -8.085938 1.4375 -10.078125 C 1.4375 -12.046875 1.878906 -13.816406 2.765625 -15.390625 C 3.660156 -16.960938 4.898438 -18.1875 6.484375 -19.0625 C 8.078125 -19.945312 9.867188 -20.390625 11.859375 -20.390625 C 13.816406 -20.390625 15.570312 -19.953125 17.125 -19.078125 C 18.675781 -18.210938 19.882812 -16.992188 20.75 -15.421875 C 21.625 -13.847656 22.0625 -12.03125 22.0625 -9.96875 Z M 11.859375 -16.609375 C 10.347656 -16.609375 9.066406 -16.160156 8.015625 -15.265625 C 6.972656 -14.378906 6.34375 -13.191406 6.125 -11.703125 L 17.5625 -11.703125 C 17.363281 -13.160156 16.742188 -14.34375 15.703125 -15.25 C 14.671875 -16.15625 13.390625 -16.609375 11.859375 -16.609375 Z M 11.859375 -16.609375 "/></g></g><g style="fill:#23242c;fill-opacity:1;"><g transform="translate(156.184614, 282.209078)"><path style="stroke:none" d="M 3.484375 0.109375 C 2.878906 0.109375 2.296875 0.0234375 1.734375 -0.140625 C 1.171875 -0.316406 0.722656 -0.546875 0.390625 -0.828125 L 0.890625 -1.953125 C 1.210938 -1.703125 1.609375 -1.492188 2.078125 -1.328125 C 2.546875 -1.171875 3.015625 -1.09375 3.484375 -1.09375 C 4.066406 -1.09375 4.5 -1.1875 4.78125 -1.375 C 5.070312 -1.5625 5.21875 -1.8125 5.21875 -2.125 C 5.21875 -2.34375 5.132812 -2.523438 4.96875 -2.671875 C 4.8125 -2.816406 4.609375 -2.929688 4.359375 -3.015625 C 4.117188 -3.097656 3.785156 -3.191406 3.359375 -3.296875 C 2.765625 -3.429688 2.28125 -3.570312 1.90625 -3.71875 C 1.539062 -3.863281 1.222656 -4.085938 0.953125 -4.390625 C 0.691406 -4.691406 0.5625 -5.097656 0.5625 -5.609375 C 0.5625 -6.046875 0.675781 -6.441406 0.90625 -6.796875 C 1.144531 -7.148438 1.5 -7.429688 1.96875 -7.640625 C 2.445312 -7.847656 3.03125 -7.953125 3.71875 -7.953125 C 4.195312 -7.953125 4.664062 -7.890625 5.125 -7.765625 C 5.59375 -7.648438 5.992188 -7.484375 6.328125 -7.265625 L 5.875 -6.125 C 5.53125 -6.332031 5.171875 -6.488281 4.796875 -6.59375 C 4.421875 -6.695312 4.054688 -6.75 3.703125 -6.75 C 3.128906 -6.75 2.703125 -6.648438 2.421875 -6.453125 C 2.140625 -6.253906 2 -6 2 -5.6875 C 2 -5.457031 2.078125 -5.269531 2.234375 -5.125 C 2.398438 -4.988281 2.601562 -4.878906 2.84375 -4.796875 C 3.09375 -4.710938 3.429688 -4.617188 3.859375 -4.515625 C 4.441406 -4.378906 4.921875 -4.238281 5.296875 -4.09375 C 5.671875 -3.945312 5.988281 -3.722656 6.25 -3.421875 C 6.519531 -3.128906 6.65625 -2.726562 6.65625 -2.21875 C 6.65625 -1.78125 6.535156 -1.382812 6.296875 -1.03125 C 6.066406 -0.6875 5.710938 -0.410156 5.234375 -0.203125 C 4.753906 0.00390625 4.171875 0.109375 3.484375 0.109375 Z M 3.484375 0.109375 "/></g></g><g style="fill:#23242c;fill-opacity:1;"><g transform="translate(166.774613, 282.209078)"><path style="stroke:none" d="M 2.640625 -6.609375 L 0.046875 -6.609375 L 0.046875 -7.84375 L 6.703125 -7.84375 L 6.703125 -6.609375 L 4.09375 -6.609375 L 4.09375 0 L 2.640625 0 Z M 2.640625 -6.609375 "/></g></g><g style="fill:#23242c;fill-opacity:1;"><g transform="translate(177.062148, 282.209078)"><path style="stroke:none" d="M 4.421875 0.109375 C 3.335938 0.109375 2.492188 -0.191406 1.890625 -0.796875 C 1.285156 -1.410156 0.984375 -2.285156 0.984375 -3.421875 L 0.984375 -7.84375 L 2.4375 -7.84375 L 2.4375 -3.46875 C 2.4375 -1.9375 3.101562 -1.171875 4.4375 -1.171875 C 5.757812 -1.171875 6.421875 -1.9375 6.421875 -3.46875 L 6.421875 -7.84375 L 7.859375 -7.84375 L 7.859375 -3.421875 C 7.859375 -2.285156 7.554688 -1.410156 6.953125 -0.796875 C 6.347656 -0.191406 5.503906 0.109375 4.421875 0.109375 Z M 4.421875 0.109375 "/></g></g><g style="fill:#23242c;fill-opacity:1;"><g transform="translate(189.444539, 282.209078)"><path style="stroke:none" d="M 1.046875 -7.84375 L 4.484375 -7.84375 C 5.316406 -7.84375 6.054688 -7.679688 6.703125 -7.359375 C 7.359375 -7.035156 7.863281 -6.578125 8.21875 -5.984375 C 8.582031 -5.390625 8.765625 -4.703125 8.765625 -3.921875 C 8.765625 -3.140625 8.582031 -2.453125 8.21875 -1.859375 C 7.863281 -1.265625 7.359375 -0.804688 6.703125 -0.484375 C 6.054688 -0.160156 5.316406 0 4.484375 0 L 1.046875 0 Z M 4.40625 -1.234375 C 4.988281 -1.234375 5.5 -1.34375 5.9375 -1.5625 C 6.375 -1.78125 6.707031 -2.09375 6.9375 -2.5 C 7.175781 -2.90625 7.296875 -3.378906 7.296875 -3.921875 C 7.296875 -4.460938 7.175781 -4.9375 6.9375 -5.34375 C 6.707031 -5.75 6.375 -6.0625 5.9375 -6.28125 C 5.5 -6.5 4.988281 -6.609375 4.40625 -6.609375 L 2.515625 -6.609375 L 2.515625 -1.234375 Z M 4.40625 -1.234375 "/></g></g><g style="fill:#23242c;fill-opacity:1;"><g transform="translate(202.241424, 282.209078)"><path style="stroke:none" d="M 1.046875 -7.84375 L 2.515625 -7.84375 L 2.515625 0 L 1.046875 0 Z M 1.046875 -7.84375 "/></g></g><g style="fill:#23242c;fill-opacity:1;"><g transform="translate(209.35867, 282.209078)"><path style="stroke:none" d="M 4.71875 0.109375 C 3.914062 0.109375 3.191406 -0.0625 2.546875 -0.40625 C 1.910156 -0.757812 1.410156 -1.242188 1.046875 -1.859375 C 0.679688 -2.472656 0.5 -3.160156 0.5 -3.921875 C 0.5 -4.679688 0.679688 -5.367188 1.046875 -5.984375 C 1.410156 -6.597656 1.910156 -7.078125 2.546875 -7.421875 C 3.191406 -7.773438 3.914062 -7.953125 4.71875 -7.953125 C 5.519531 -7.953125 6.238281 -7.773438 6.875 -7.421875 C 7.519531 -7.078125 8.023438 -6.597656 8.390625 -5.984375 C 8.753906 -5.378906 8.9375 -4.691406 8.9375 -3.921875 C 8.9375 -3.148438 8.753906 -2.457031 8.390625 -1.84375 C 8.023438 -1.238281 7.519531 -0.757812 6.875 -0.40625 C 6.238281 -0.0625 5.519531 0.109375 4.71875 0.109375 Z M 4.71875 -1.171875 C 5.238281 -1.171875 5.707031 -1.285156 6.125 -1.515625 C 6.539062 -1.753906 6.867188 -2.082031 7.109375 -2.5 C 7.347656 -2.925781 7.46875 -3.398438 7.46875 -3.921875 C 7.46875 -4.441406 7.347656 -4.910156 7.109375 -5.328125 C 6.867188 -5.753906 6.539062 -6.082031 6.125 -6.3125 C 5.707031 -6.550781 5.238281 -6.671875 4.71875 -6.671875 C 4.195312 -6.671875 3.722656 -6.550781 3.296875 -6.3125 C 2.878906 -6.082031 2.550781 -5.753906 2.3125 -5.328125 C 2.070312 -4.910156 1.953125 -4.441406 1.953125 -3.921875 C 1.953125 -3.398438 2.070312 -2.925781 2.3125 -2.5 C 2.550781 -2.082031 2.878906 -1.753906 3.296875 -1.515625 C 3.722656 -1.285156 4.195312 -1.171875 4.71875 -1.171875 Z M 4.71875 -1.171875 "/></g></g></g></svg>